<svg xmlns="http://www.w3.org/2000/svg"  viewBox="0 0 48 48" width="48px" height="48px"><path d="M 22.003906 2.0019531 C 20.348906 2.0019531 19.003906 3.3489531 19.003906 5.0019531 L 19.003906 6.0019531 L 9.0039062 6.0019531 C 7.9009062 6.0019531 7.0039062 6.8949531 7.0039062 8.0019531 C 7.0039063 8.2019531 7.0039062 8.8549531 7.0039062 9.0019531 C 7.0039062 9.5479531 7.4480937 10.001953 7.9960938 10.001953 L 40.017578 10.001953 C 40.564578 10.001953 41.009766 9.5489531 41.009766 9.0019531 C 41.009766 8.8549531 41.009766 8.2019531 41.009766 8.0019531 C 41.009766 6.8949531 40.112766 6.0019531 39.009766 6.0019531 L 29.009766 6.0019531 L 29.009766 5.0019531 C 29.009766 3.3489531 27.662766 2.0019531 26.009766 2.0019531 L 22.003906 2.0019531 z M 22.005859 4.0019531 L 26.009766 4.0019531 C 26.560766 4.0019531 27.009766 4.4549531 27.009766 5.0019531 L 27.009766 6.0019531 L 21.005859 6.0019531 L 21.005859 5.0019531 C 21.005859 4.4549531 21.453859 4.0019531 22.005859 4.0019531 z M 8.953125 7.0019531 C 10.864125 6.9879531 15.603297 7.0672969 15.654297 7.6542969 C 15.701297 8.1872969 10.838641 8.9619531 9.0566406 9.0019531 C 8.5026406 9.0279531 8.0338594 8.6016875 8.0058594 8.0546875 C 7.9778594 7.5076875 8.401125 7.0279531 8.953125 7.0019531 z M 6.0097656 11.001953 C 5.4567656 11.001953 5.0058594 11.454953 5.0058594 12.001953 L 5.0058594 13.001953 C 5.0058594 13.548953 5.4529062 14.001953 6.0039062 14.001953 L 6.0058594 20.988281 C 6.0058594 21.548281 6.4538594 21.988281 7.0058594 21.988281 C 7.5568594 21.988281 8.0058594 21.548281 8.0058594 20.988281 L 8.0058594 14.001953 L 9.0058594 14.001953 L 10.769531 44.001953 L 12.507812 44.001953 C 12.782812 44.001953 13.007812 44.227141 13.007812 44.494141 C 13.007813 44.774141 12.782813 45.001953 12.507812 45.001953 L 10.828125 45.001953 L 10.947266 47.003906 C 9.8077892 47.009874 7.0058594 47.231562 7.0058594 47.507812 C 7.0058594 47.773812 9.8978594 48.001953 11.005859 48.001953 L 37.005859 48.001953 C 37.007839 48.001953 37.011681 48.001955 37.013672 48.001953 C 38.12604 48.001144 41.005859 47.773337 41.005859 47.507812 C 41.005859 47.232069 38.215774 47.010664 37.072266 47.003906 L 37.189453 45.001953 L 35.494141 45.001953 C 35.218141 45.001953 34.994141 44.774141 34.994141 44.494141 C 34.994141 44.228141 35.218141 44.001953 35.494141 44.001953 L 37.248047 44.001953 L 39.013672 14.001953 L 40.007812 14.001953 L 40.007812 20.988281 C 40.007812 21.548281 40.455813 21.988281 41.007812 21.988281 C 41.558813 21.988281 42.007812 21.548281 42.007812 20.988281 L 42.007812 14.001953 C 42.557812 14.001953 43.003906 13.548953 43.003906 13.001953 L 43.003906 12.001953 C 43.003906 11.454953 42.553 11.001953 42 11.001953 L 40.013672 11.001953 L 8.0058594 11.001953 L 6.0097656 11.001953 z M 35.082031 17 C 35.923031 17 36.342922 17.893 36.294922 19 L 35.269531 40.466797 C 35.205531 41.320797 34.755656 42.001 34.097656 42 C 33.422656 42 32.951281 41.280391 32.988281 40.400391 L 33.810547 19 C 33.859547 17.893 34.239031 17 35.082031 17 z M 12.925781 17.001953 C 13.768781 17.001953 14.148266 17.894953 14.197266 19.001953 L 15.017578 40.400391 C 15.054578 41.280391 14.585156 42.001953 13.910156 42.001953 C 13.252156 42.001953 12.800328 41.32175 12.736328 40.46875 L 11.712891 19.001953 C 11.664891 17.894953 12.084781 17.001953 12.925781 17.001953 z M 20.005859 17.001953 C 21.109859 17.001953 22.005859 17.894953 22.005859 19.001953 L 22.005859 40.400391 C 22.005859 41.280391 21.287297 42.001 20.404297 42 C 19.543297 42 18.840688 41.319797 18.804688 40.466797 L 18.011719 19.173828 C 18.009719 19.120828 18.005859 19.068953 18.005859 19.001953 C 18.005859 17.894953 18.901859 17.001953 20.005859 17.001953 z M 28.001953 17.001953 C 29.105953 17.001953 30.001953 17.894953 30.001953 19.001953 C 30.001953 19.067953 29.995141 19.120828 29.994141 19.173828 L 29.203125 40.466797 C 29.167125 41.320797 28.465516 42.001953 27.603516 42.001953 C 26.719516 42.001953 26.001953 41.280391 26.001953 40.400391 L 26.001953 19.001953 C 26.001953 17.894953 26.897953 17.001953 28.001953 17.001953 z"/></svg>